<?xml version="1.0"?><svg xmlns="http://www.w3.org/2000/svg"  viewBox="0 0 24 24" width="24px" height="24px">    <path d="M 8 3 C 6.9069372 3 6 3.9069372 6 5 L 6 8 L 6 9 L 6 15 C 6 16.093063 6.9069372 17 8 17 L 20 17 C 21.093063 17 22 16.093063 22 15 L 22 9 L 22 8 L 22 5 C 22 3.9069372 21.093063 3 20 3 L 8 3 z M 8 5 L 20 5 L 20 7 L 8 7 L 8 5 z M 4 8 C 2.895 8 2 8.895 2 10 L 2 19 C 2 20.105 2.895 21 4 21 L 16 21 C 17.105 21 18 20.105 18 19 L 4 19 L 4 8 z M 8 9 L 20 9 L 20 15 L 8 15 L 8 9 z M 10 11 L 10 13 L 12 13 L 12 11 L 10 11 z M 14 11 L 14 13 L 18 13 L 18 11 L 14 11 z"/></svg>