<svg width="41" height="40" viewBox="0 0 41 40" fill="none" xmlns="http://www.w3.org/2000/svg">
<rect width="40.0017" height="40" fill="#696EF2"/>
<path fill-rule="evenodd" clip-rule="evenodd" d="M28.0017 12.7398V27.2619L28 27.2602C28 27.6687 27.6687 28 27.2602 28H12.7398C12.3313 28 12 27.6687 12 27.2602V12.7398C12 12.3313 12.3313 12 12.7398 12H27.2619C27.6704 12 28.0017 12.3313 28.0017 12.7398ZM24.8296 23.0066H25.8647C25.8647 19.7726 23.2349 17.1428 20.001 17.1428C16.767 17.1428 14.1372 19.7743 14.1372 23.0066H15.1723C15.1723 20.3442 17.3386 18.1779 20.001 18.1779C22.6633 18.1779 24.8296 20.3442 24.8296 23.0066Z" fill="white"/>
</svg>
